<svg preserveAspectRatio="none" overflow="visible" style="display: block;" width="14" height="14" viewBox="0 0 14 14" fill="none" xmlns="http://www.w3.org/2000/svg">
<g id="tiktok">
<path id="Vector" d="M7.30927 0.0118131C8.07274 0 8.83185 0.00700037 9.59008 0C9.63602 0.892985 9.95716 1.8026 10.6108 2.43394C11.2632 3.08104 12.1859 3.37724 13.0837 3.47744V5.8265C12.2423 5.79893 11.397 5.62392 10.6336 5.26166C10.3011 5.11115 9.99129 4.91732 9.68808 4.71913C9.68414 6.42372 9.69508 8.12612 9.67714 9.82371C9.63164 10.6393 9.36256 11.4509 8.88829 12.1229C8.12525 13.2416 6.80086 13.971 5.4406 13.9937C4.60625 14.0414 3.77277 13.8139 3.06179 13.3948C1.88354 12.7 1.05443 11.4281 0.933677 10.063C0.919676 9.77121 0.914863 9.47982 0.926676 9.19499C1.03168 8.08499 1.58077 7.02312 2.43307 6.30077C3.39912 5.45942 4.75238 5.05864 6.01945 5.29578C6.03126 6.15989 5.9967 7.02312 5.9967 7.88723C5.41785 7.69997 4.74144 7.75248 4.23567 8.10381C3.8664 8.34313 3.58594 8.70978 3.43981 9.12455C3.31905 9.42031 3.35362 9.74889 3.36062 10.063C3.49931 11.0203 4.41986 11.8249 5.40254 11.7379C6.05401 11.7309 6.67836 11.3529 7.01788 10.7994C7.12769 10.6056 7.25064 10.4074 7.2572 10.1794C7.31452 9.13593 7.29177 8.09681 7.29877 7.05331C7.30358 4.70163 7.29177 2.3565 7.3097 0.0122507L7.30927 0.0118131Z" fill="white"/>
</g>
</svg>
