<svg preserveAspectRatio="none" overflow="visible" style="display: block;" width="14.0" height="14.0" viewBox="0.0 2.0 14.0 14.0" fill="none" xmlns="http://www.w3.org/2000/svg">
<g id="Margin">
<path id="Symbol" d="M13.002 6.00586H12.7969C12.8516 5.85091 12.8994 5.69368 12.9404 5.53418C12.9814 5.37467 13.002 5.19466 13.002 4.99414C13.002 4.57487 12.9245 4.18294 12.7695 3.81836C12.6146 3.45378 12.4027 3.13704 12.1338 2.86816C11.8649 2.59928 11.5482 2.38737 11.1836 2.23242C10.819 2.07747 10.4225 2 9.99414 2C9.30143 2 8.70443 2.1709 8.20312 2.5127C7.70182 2.85449 7.30078 3.2487 7 3.69531C6.69922 3.2487 6.29818 2.85449 5.79688 2.5127C5.29557 2.1709 4.69857 2 4.00586 2C3.57747 2 3.18099 2.07747 2.81641 2.23242C2.45182 2.38737 2.13509 2.59928 1.86621 2.86816C1.59733 3.13704 1.38542 3.45378 1.23047 3.81836C1.07552 4.18294 0.998047 4.57487 0.998047 4.99414C0.998047 5.19466 1.01855 5.37467 1.05957 5.53418C1.10059 5.69368 1.14844 5.85091 1.20312 6.00586H0.998047C0.724609 6.00586 0.489909 6.10156 0.293945 6.29297C0.0979818 6.48438 0 6.72135 0 7.00391V9.99805C0 10.2715 0.0979818 10.5062 0.293945 10.7021C0.489909 10.8981 0.724609 10.9961 0.998047 10.9961V15.002C0.998047 15.2754 1.09603 15.5101 1.29199 15.7061C1.48796 15.902 1.72266 16 1.99609 16H12.0039C12.2773 16 12.512 15.902 12.708 15.7061C12.904 15.5101 13.002 15.2754 13.002 15.002V10.9961C13.2754 10.9961 13.5101 10.8981 13.7061 10.7021C13.902 10.5062 14 10.2715 14 9.99805V7.00391C14 6.72135 13.902 6.48438 13.7061 6.29297C13.5101 6.10156 13.2754 6.00586 13.002 6.00586V6.00586V6.00586M9.99414 3.99609C10.2949 3.99609 10.5387 4.08952 10.7256 4.27637C10.9124 4.46322 11.0059 4.70247 11.0059 4.99414C11.0059 5.29492 10.9124 5.53874 10.7256 5.72559C10.5387 5.91243 10.2949 6.00586 9.99414 6.00586H8.20312C8.30339 5.55013 8.49023 5.10124 8.76367 4.65918C9.03711 4.21712 9.44727 3.99609 9.99414 3.99609V3.99609M2.99414 4.99414C2.99414 4.70247 3.08757 4.46322 3.27441 4.27637C3.46126 4.08952 3.70508 3.99609 4.00586 3.99609C4.55273 3.99609 4.96289 4.21712 5.23633 4.65918C5.50977 5.10124 5.69661 5.55013 5.79688 6.00586H4.00586C3.70508 6.00586 3.46126 5.91243 3.27441 5.72559C3.08757 5.53874 2.99414 5.29492 2.99414 4.99414V4.99414M2.99414 10.9961H6.00195V14.0039H2.99414V10.9961V10.9961M11.0059 14.0039H7.99805V10.9961H11.0059V14.0039V14.0039M12.0039 9H1.99609V8.00195H12.0039V9V9" fill="#91979A"/>
</g>
</svg>
