<svg preserveAspectRatio="none" overflow="visible" style="display: block;" width="14.0" height="14.0" viewBox="0.0 2.0 14.0 14.0" fill="none" xmlns="http://www.w3.org/2000/svg">
<g id="Margin">
<path id="Symbol" d="M6.00195 2C5.72852 2 5.49382 2.09798 5.29785 2.29395C5.10189 2.48991 5.00391 2.72461 5.00391 2.99805V15.002C5.00391 15.2754 5.10189 15.5101 5.29785 15.7061C5.49382 15.902 5.72852 16 6.00195 16H7.99805C8.27148 16 8.50618 15.902 8.70215 15.7061C8.89811 15.5101 8.99609 15.2754 8.99609 15.002V2.99805C8.99609 2.72461 8.89811 2.48991 8.70215 2.29395C8.50618 2.09798 8.27148 2 7.99805 2H6.00195V2V2M0 7.00391C0 6.72135 0.0979818 6.48438 0.293945 6.29297C0.489909 6.10156 0.724609 6.00586 0.998047 6.00586H2.99414C3.27669 6.00586 3.51595 6.10156 3.71191 6.29297C3.90788 6.48438 4.00586 6.72135 4.00586 7.00391V15.002C4.00586 15.2754 3.90788 15.5101 3.71191 15.7061C3.51595 15.902 3.27669 16 2.99414 16H0.998047C0.724609 16 0.489909 15.902 0.293945 15.7061C0.0979818 15.5101 0 15.2754 0 15.002V7.00391V7.00391M9.99414 10.9961C9.99414 10.7227 10.0921 10.488 10.2881 10.292C10.484 10.096 10.7233 9.99805 11.0059 9.99805H13.002C13.2754 9.99805 13.5101 10.096 13.7061 10.292C13.902 10.488 14 10.7227 14 10.9961V15.002C14 15.2754 13.902 15.5101 13.7061 15.7061C13.5101 15.902 13.2754 16 13.002 16H11.0059C10.7233 16 10.484 15.902 10.2881 15.7061C10.0921 15.5101 9.99414 15.2754 9.99414 15.002V10.9961V10.9961V10.9961" fill="#91979A"/>
</g>
</svg>
