<svg preserveAspectRatio="none" overflow="visible" style="display: block;" width="20" height="20" viewBox="0 0 20 20" fill="none" xmlns="http://www.w3.org/2000/svg">
<g id="Icon">
<path id="Vector" d="M0.410156 15.293C0.696615 15.5794 1.03516 15.7227 1.42578 15.7227C1.81641 15.7227 2.15495 15.5794 2.44141 15.293L10 7.73438L17.5586 15.293C17.8451 15.5794 18.1836 15.7227 18.5742 15.7227C18.9648 15.7227 19.3034 15.5794 19.5898 15.293C19.8633 15.0195 20 14.6842 20 14.2871C20 13.89 19.8633 13.5547 19.5898 13.2812L11.0156 4.70703C10.7292 4.42057 10.3906 4.27734 10 4.27734C9.60938 4.27734 9.27083 4.42057 8.98438 4.70703L0.410156 13.2812C0.136719 13.5547 0 13.89 0 14.2871C0 14.6842 0.136719 15.0195 0.410156 15.293Z" fill="white"/>
</g>
</svg>
