<svg preserveAspectRatio="none" overflow="visible" style="display: block;" width="23.99" height="23.33" viewBox="0 0 23.99 23.33" fill="none" xmlns="http://www.w3.org/2000/svg">
<g id="Icon">
<path id="Vector" d="M0.33 20.0037V3.32635C0.33 2.41502 0.656559 1.6328 1.30968 0.979678C1.9628 0.326559 2.74502 3.8147e-08 3.65635 3.8147e-08H20.3337C21.245 3.8147e-08 22.0272 0.326559 22.6803 0.979678C23.3334 1.6328 23.66 2.41502 23.66 3.32635V20.0037C23.66 20.915 23.3334 21.6972 22.6803 22.3503C22.0272 23.0034 21.245 23.33 20.3337 23.33H3.65635C2.74502 23.33 1.9628 23.0034 1.30968 22.3503C0.656559 21.6972 0.33 20.915 0.33 20.0037ZM9.67111 5.33127C9.16988 4.92117 8.6003 4.87561 7.96237 5.19457C7.32444 5.51354 7.00548 6.00717 7.00548 6.67548V16.6545C7.00548 17.3228 7.30166 17.8165 7.89402 18.1354C8.48639 18.4544 9.07875 18.4088 9.67111 17.9987L16.3238 13.0092C16.7491 12.6751 16.9617 12.227 16.9617 11.665C16.9617 11.103 16.7491 10.6549 16.3238 10.3208L9.67111 5.33127Z" fill="#91979A"/>
</g>
</svg>
